# Blender v2.82 (sub 7) OBJ File: ''
# www.blender.org
mtllib cross.mtl
o Plane_Plane.001
v -0.050000 0.000000 1.000000
v 0.050000 0.000000 1.000000
v -0.050000 0.000000 0.050000
v 0.050000 0.000000 0.050000
v 1.000000 0.000000 0.050000
v 1.000000 0.000000 -0.050000
v 0.050000 0.000000 -0.050000
v 0.050000 0.000000 -1.000000
v -0.050000 0.000000 -1.000000
v -0.050000 0.000000 -0.050000
v -1.000000 0.000000 -0.050000
v -1.000000 0.000000 0.050000
vt 0.000000 0.000000
vt 1.000000 0.000000
vt 1.000000 1.000000
vt 0.000000 1.000000
vt 0.000000 0.000000
vt 1.000000 0.000000
vt 1.000000 1.000000
vt 0.000000 1.000000
vt 0.000000 0.000000
vt 1.000000 0.000000
vt 1.000000 1.000000
vt 0.000000 1.000000
vt 0.000000 0.000000
vt 1.000000 0.000000
vt 1.000000 1.000000
vt 0.000000 1.000000
vn 0.0000 1.0000 0.0000
usemtl None
s off
f 1/1/1 2/2/1 4/3/1 3/4/1
f 5/5/1 6/6/1 7/7/1 4/8/1
f 8/9/1 9/10/1 10/11/1 7/12/1
f 11/13/1 12/14/1 3/15/1 10/16/1
f 3/15/1 4/8/1 7/12/1 10/16/1
