# Blender v2.82 (sub 7) OBJ File: ''
# www.blender.org
mtllib cross.mtl
o Plane.002_Plane.005
v -0.050000 -0.050000 -0.050000
v -1.000000 -0.050000 -0.050000
v -0.050000 -0.050000 0.050000
v -1.000000 -0.050000 0.050000
v 0.050000 -0.050000 0.050000
v 1.000000 -0.050000 0.050000
v 0.050000 -0.050000 -0.050000
v 1.000000 -0.050000 -0.050000
v -1.000000 0.050000 0.050000
v 0.050000 -0.050000 -1.000000
v -0.050000 0.050000 -0.050000
v -0.050000 -0.050000 -1.000000
v -1.000000 0.050000 -0.050000
v -0.050000 -0.050000 1.000000
v -0.050000 0.050000 0.050000
v 0.050000 -0.050000 1.000000
v 0.050000 0.050000 0.050000
v 1.000000 0.050000 0.050000
v 0.050000 0.050000 -0.050000
v 1.000000 0.050000 -0.050000
v 0.050000 0.050000 -1.000000
v -0.050000 0.050000 -1.000000
v -0.050000 0.050000 1.000000
v 0.050000 0.050000 1.000000
vt 0.000000 0.000000
vt 0.000000 1.000000
vt 1.000000 1.000000
vt 1.000000 0.000000
vt 0.000000 0.000000
vt 0.000000 1.000000
vt 1.000000 1.000000
vt 1.000000 0.000000
vt 0.000000 0.000000
vt 0.000000 1.000000
vt 1.000000 1.000000
vt 1.000000 0.000000
vt 0.000000 0.000000
vt 0.000000 1.000000
vt 1.000000 1.000000
vt 1.000000 0.000000
vt 0.000000 0.000000
vt 1.000000 0.000000
vt 1.000000 1.000000
vt 0.000000 1.000000
vt 0.000000 0.000000
vt 1.000000 0.000000
vt 1.000000 1.000000
vt 0.000000 1.000000
vt 0.000000 0.000000
vt 1.000000 0.000000
vt 1.000000 1.000000
vt 0.000000 1.000000
vt 0.000000 0.000000
vt 1.000000 0.000000
vt 1.000000 1.000000
vt 0.000000 1.000000
vn 0.0000 -1.0000 0.0000
vn 0.0000 1.0000 0.0000
vn 1.0000 0.0000 0.0000
vn -1.0000 0.0000 0.0000
vn 0.0000 0.0000 1.0000
vn 0.0000 0.0000 -1.0000
usemtl None
s off
f 1/1/1 3/2/1 4/3/1 2/4/1
f 5/5/1 7/6/1 8/7/1 6/8/1
f 7/9/1 1/10/1 12/11/1 10/12/1
f 3/13/1 5/14/1 16/15/1 14/16/1
f 3/13/1 1/10/1 7/6/1 5/14/1
f 11/17/2 13/18/2 9/19/2 15/20/2
f 17/21/2 18/22/2 20/23/2 19/24/2
f 19/25/2 21/26/2 22/27/2 11/28/2
f 15/29/2 23/30/2 24/31/2 17/32/2
f 15/29/2 17/32/2 19/24/2 11/28/2
f 6/8/3 8/7/3 20/23/3 18/22/3
f 12/11/4 1/10/4 11/28/4 22/27/4
f 4/3/5 3/2/5 15/20/5 9/19/5
f 10/12/6 12/11/6 22/27/6 21/26/6
f 7/9/3 10/12/3 21/26/3 19/25/3
f 8/7/6 7/6/6 19/24/6 20/23/6
f 14/16/5 16/15/5 24/31/5 23/30/5
f 1/1/6 2/4/6 13/18/6 11/17/6
f 16/15/3 5/14/3 17/32/3 24/31/3
f 5/5/5 6/8/5 18/22/5 17/21/5
f 3/13/4 14/16/4 23/30/4 15/29/4
f 2/4/4 4/3/4 9/19/4 13/18/4
