# Blender v2.82 (sub 7) OBJ File: 'untitled.blend'
# www.blender.org
mtllib recepticle.mtl
o Cube.001
v -0.900000 0.100000 -0.900000
v -0.900000 0.100000 0.900000
v -0.900000 -0.090000 0.900000
v -0.900000 -0.090000 -0.900000
v 1.000000 -0.100000 1.000000
v 1.000000 0.100000 1.000000
v -1.000000 0.100000 1.000000
v -1.000000 -0.100000 1.000000
v -1.000000 0.100000 -1.000000
v -1.000000 -0.100000 -1.000000
v 1.000000 -0.100000 -1.000000
v 1.000000 0.100000 -1.000000
v 0.900000 0.100000 0.900000
v 0.900000 0.100000 -0.900000
v 0.900000 -0.090000 -0.900000
v 0.900000 -0.090000 0.900000
v -0.900000 -0.090000 0.900000
v -0.900000 -0.090000 -0.900000
v 0.900000 -0.090000 -0.900000
v 0.900000 -0.090000 0.900000
vt 0.963594 0.965698
vt 0.963594 0.966500
vt 0.971288 0.978101
vt 0.971288 0.977129
vt 0.969181 0.978155
vt 0.970261 0.978155
vt 0.970261 0.979235
vt 0.969181 0.979235
vt 0.969181 0.974914
vt 0.970261 0.974914
vt 0.970261 0.975995
vt 0.969181 0.975995
vt 0.968101 0.977075
vt 0.969181 0.977075
vt 0.968101 0.978155
vt 0.970261 0.977075
vt 0.962792 0.966500
vt 0.971342 0.978155
vt 0.962792 0.965698
vt 0.971342 0.977075
vt 0.963871 0.966777
vt 0.963871 0.965421
vt 0.970315 0.978101
vt 0.962515 0.965421
vt 1.000100 1.000100
vt 0.001853 1.000100
vt 0.001853 -0.002053
vt 1.000100 -0.002053
vt 0.962515 0.966777
vt 0.970315 0.977129
vn 1.0000 0.0000 0.0000
vn 0.0000 0.0000 1.0000
vn -1.0000 0.0000 0.0000
vn 0.0000 -1.0000 -0.0000
vn 0.0000 0.0000 -1.0000
vn 0.0000 1.0000 0.0000
vn 0.0000 0.0000 0.0000
usemtl Material.001
s 1
f 1/1/1 2/2/1 3/3/1 4/4/1
f 5/5/2 6/6/2 7/7/2 8/8/2
f 8/9/3 7/10/3 9/11/3 10/12/3
f 10/13/4 11/14/4 5/5/4 8/15/4
f 11/14/1 12/16/1 6/6/1 5/5/1
f 10/12/5 9/11/5 12/16/5 11/14/5
f 13/17/6 2/2/6 7/18/6 6/6/6
f 14/19/6 13/17/6 6/6/6 12/16/6
f 2/2/6 1/1/6 9/20/6 7/18/6
f 1/1/6 14/19/6 12/16/6 9/20/6
f 4/4/7 3/3/7 17/21/7 18/22/7
f 2/2/5 13/17/5 16/23/5 3/3/5
f 14/19/2 1/1/2 4/4/2 15/24/2
f 13/17/3 14/19/3 15/24/3 16/23/3
f 19/25/6 18/26/6 17/27/6 20/28/6
f 3/3/7 16/23/7 20/29/7 17/21/7
f 16/23/7 15/24/7 19/30/7 20/29/7
f 15/24/7 4/4/7 18/22/7 19/30/7
